# xmcd
#
# Track frame offsets: 
#        150
#        20840
#        35883
#        51769
#        66946
#        83561
#        99807
#        117603
#        133196
#        150325
#        166828
#        183395
#
# Disc length: 2633 seconds
#
# Revision: 1
# Processed by: cddbd v1.5.2PL0 Copyright (c) Steve Scherf et al.
# Submitted via: ExactAudioCopy v1.0b3
#
DISCID=9c0a470c
DTITLE=Gloria Trevi - Diosa De La Noche
DYEAR=2019
DGENRE=Latin
TTITLE0=Diosa De La Noche
TTITLE1=Abranse Perras
TTITLE2=Rompeme El Corazon
TTITLE3=Que Me Duela
TTITLE4=Yo Soy Su Vida
TTITLE5=Gloria Trevi (feat. Charly Black) - Me Lloras
TTITLE6=Vas A Recordarme
TTITLE7=Mediterraneo
TTITLE8=Ellas Soy Yo
TTITLE9=Yo Tengo Hoy
TTITLE10=Tribu
TTITLE11=Gloria Trevi (con Karol G) - Hijoepu*#
EXTD=
EXTT0=
EXTT1=
EXTT2=
EXTT3=
EXTT4=
EXTT5=
EXTT6=
EXTT7=
EXTT8=
EXTT9=
EXTT10=
EXTT11=
PLAYORDER=
